<?xml version="1.0" encoding="UTF-8" standalone="no"?><!DOCTYPE svg PUBLIC "-//W3C//DTD SVG 1.1//EN" "http://www.w3.org/Graphics/SVG/1.1/DTD/svg11.dtd"><svg width="100%" height="100%" viewBox="0 0 512 368" version="1.1" xmlns="http://www.w3.org/2000/svg" xmlns:xlink="http://www.w3.org/1999/xlink" xml:space="preserve" xmlns:serif="http://www.serif.com/" style="fill-rule:evenodd;clip-rule:evenodd;stroke-linejoin:round;stroke-miterlimit:2;"><path d="M463.449,169.217c-3.101,0.676 -53.858,13.267 -53.858,13.267l-41.515,-56.956c-1.163,-1.644 -2.128,-3.292 0.777,-3.679c2.905,-0.387 50.078,-8.913 52.209,-9.396c2.133,-0.483 3.97,-1.067 6.588,2.518c2.612,3.585 38.508,49.015 39.866,50.76c1.355,1.74 -0.966,2.807 -4.067,3.486m-8.862,98.145c1.268,1.993 2.533,3.26 -1.452,4.709c-3.981,1.448 -134.388,45.462 -136.924,46.546c-2.536,1.084 -4.525,1.447 -7.787,-3.258c-3.262,-4.711 -45.685,-78.136 -45.685,-78.136l138.237,-35.967c3.44,-1.088 4.526,-1.814 6.702,1.63c2.172,3.44 45.64,62.484 46.909,64.476m-223.882,-41.961c-1.694,0.359 -81.1,19.365 -85.337,20.336c-4.237,0.965 -4.237,0.482 -4.72,-0.971c-0.486,-1.454 -94.411,-195.125 -95.717,-197.547c-1.304,-2.42 -1.234,-4.341 0,-4.341c1.238,0 74.991,-6.592 77.601,-6.729c2.61,-0.137 2.335,0.412 3.296,2.06c0,0 104.029,179.565 105.845,182.708c1.816,3.152 0.726,4.119 -0.968,4.484m257.731,-52.698c-3.1,-3.486 -45.966,-57.153 -53.523,-66.255c-7.552,-9.107 -11.235,-7.46 -15.883,-6.781c-4.652,0.678 -58.896,9.785 -65.191,10.849c-6.298,1.065 -10.268,3.586 -6.394,9.01c3.445,4.821 39.108,55.377 46.958,66.511l-141.768,33.965l-112.75,-188.502c-4.488,-6.655 -5.42,-8.981 -15.636,-8.517c-10.215,0.465 -88.448,6.965 -94.02,7.428c-5.572,0.466 -11.688,2.946 -6.116,16.101c5.573,13.156 94.42,204.617 96.894,210.186c2.477,5.568 8.916,14.61 23.99,10.989c15.447,-3.712 69.009,-17.69 98.276,-25.357c15.466,28.006 47.006,84.808 52.835,92.952c7.788,10.862 13.146,9.066 25.106,5.445c9.332,-2.827 146.048,-51.993 152.209,-54.527c6.157,-2.538 9.96,-4.348 5.795,-10.507c-3.062,-4.528 -39.131,-52.843 -58.022,-78.122c12.94,-3.444 58.949,-15.693 63.856,-17.021c5.71,-1.548 6.489,-4.36 3.384,-7.847" style="fill:#fff;fill-opacity:0.05;fill-rule:nonzero;"/></svg>